<?xml version="1.0" ?><svg viewBox="0 0 22.079 22.079" xmlns="http://www.w3.org/2000/svg"><g data-name="Layer 2" id="Layer_2"><g data-name="Layer 1" id="Layer_1-2"><path d="M21.745,6.245H19.4V.335A.335.335,0,0,0,19.069,0H.335A.335.335,0,0,0,0,.335V19.068a.335.335,0,0,0,.335.335H2.677v2.342a.335.335,0,0,0,.334.334H21.745a.335.335,0,0,0,.334-.334V6.579A.335.335,0,0,0,21.745,6.245Zm-5.91,12.016V15.834h2.426ZM.669.669H18.734v2.9H.669Zm0,18.064V4.238H18.734V15.165H15.5a.335.335,0,0,0-.335.335v3.233ZM21.41,21.41H3.346V19.4H15.5a.339.339,0,0,0,.237-.1l3.568-3.569a.334.334,0,0,0,.1-.236V6.914H21.41ZM17.075,2.355c-.3.312-.784-.171-.473-.473S17.384,2.052,17.075,2.355Zm-2.543.1a.335.335,0,0,1,0-.67A.335.335,0,0,1,14.532,2.454Zm-2.065-.1c-.3.312-.783-.171-.473-.473S12.778,2.051,12.467,2.355ZM10.231,6.69h6.162a.335.335,0,0,1,0,.67H10.231A.335.335,0,0,1,10.231,6.69Zm-7.219,0H8.447a.335.335,0,0,1,0,.67H3.012A.335.335,0,0,1,3.012,6.69Zm13.381,3.643H14.014a.335.335,0,0,1,0-.669h2.379A.335.335,0,0,1,16.393,10.333Zm-4.163,0H7.109a.335.335,0,1,1,0-.669H12.23a.335.335,0,0,1,0,.669ZM3.012,9.664H5.324a.335.335,0,0,1,0,.669H3.012A.335.335,0,0,1,3.012,9.664Zm13.381,3.643H11.57a.335.335,0,0,1,0-.669h4.823A.335.335,0,0,1,16.393,13.307ZM3.012,12.638H9.785a.335.335,0,0,1,0,.669H3.012A.335.335,0,0,1,3.012,12.638Zm9.9,3.642H8.183a.335.335,0,0,1,0-.669h4.725A.335.335,0,0,1,12.908,16.28Zm-6.51,0H3.012a.335.335,0,0,1,0-.669H6.4A.335.335,0,0,1,6.4,16.28Z" data-name="training courses" id="training_courses"/></g></g></svg>